<?xml version="1.0" standalone="no"?><!DOCTYPE svg PUBLIC "-//W3C//DTD SVG 1.1//EN" "http://www.w3.org/Graphics/SVG/1.1/DTD/svg11.dtd"><svg class="icon" width="300px" height="300.00px" viewBox="0 0 1024 1024" version="1.1" xmlns="http://www.w3.org/2000/svg"><path d="M237.919086 918.764983s156.768549-7.835063 260.953234-8.788846c115.758811-1.059109 300.163657 8.788846 300.163657 8.788846l191.318309 21.632731s-298.896823 17.712274-491.481966 17.577692C309.979429 957.843749 35.108571 940.397714 35.108571 940.397714l202.810515-21.632731z" fill="#000000" opacity=".5" /><path d="M145.211977 78.283337c4.768914-6.606263 13.320777-15.108389 25.78432-13.788891 10.494537 1.111771 27.390537 6.038674 46.650514 12.603977 19.766126 6.73792 43.476114 15.72864 68.312503 25.755063 44.696137 18.039954 93.561417 39.637577 130.323017 57.870628A533.735131 533.735131 0 0 1 512 152.137143c35.064686 0 69.210697 3.3792 102.022583 9.777737 35.989211-17.855634 82.727497-38.654537 125.595063-56.118126 24.611109-10.026423 48.104594-19.017143 67.692251-25.760914 19.075657-6.562377 35.842926-11.498057 46.273097-12.612754 12.498651-1.337051 21.024183 7.267474 25.719955 13.838628 5.117074 7.159223 9.371063 16.828709 13.039908 27.4432 7.422537 21.480594 13.80352 50.936686 19.21024 82.970332 10.8544 64.3072 18.233051 141.80352 21.717577 193.536 0.084846 1.287314 0.002926 2.548297-0.231131 3.759543C957.671131 437.39136 971.337143 490.876343 971.337143 547.108571c0 218.135406-205.651383 394.971429-459.337143 394.971429S52.662857 765.243977 52.662857 547.108571c0-56.618423 13.853257-110.454491 38.806674-159.138377a14.584686 14.584686 0 0 1-0.73728-5.69344c3.516709-51.735406 10.962651-129.237577 21.919452-193.550628 5.456457-32.036571 11.89888-61.498514 19.39456-82.98496 3.703954-10.620343 7.998903-20.29568 13.165714-27.457829z" fill="#000000" /><path d="M177.88928 140.434286c34.175269 20.140617 117.332846 72.197851 100.837669 82.306194-48.888686 29.965166-117.543497 86.884937-128.936229 101.235566-11.392731 14.350629 6.834469-174.477897 28.09856-183.54176z m671.147154 0c-34.175269 20.140617-117.332846 72.197851-100.837668 82.306194 48.888686 29.965166 117.543497 86.884937 128.936228 101.235566 11.392731 14.350629-6.834469-174.477897-28.09856-183.54176z" fill="#FFFFFF" opacity=".3" /><path d="M371.565714 572.161463c-97.715931 39.07584-226.347886 27.911314-286.72 0C84.845714 678.227383 213.594697 912.822857 492.982857 912.822857c339.084434 0 435.583269-219.70944 450.56-340.661394-32.291109 30.702446-172.350903 40.895634-270.628571 0C552.172983 521.921097 582.217143 298.422857 529.554286 298.422857s-35.842926 224.893806-157.988572 273.738606z" fill="#FFFFFF" /><path d="M362.788571 555.885714c30.69952 0 55.588571-29.473646 55.588572-65.828571s-24.889051-65.828571-55.588572-65.828572-55.588571 29.473646-55.588571 65.828572 24.889051 65.828571 55.588571 65.828571z m324.754286 0c30.69952 0 55.588571-29.473646 55.588572-65.828571s-24.889051-65.828571-55.588572-65.828572-55.588571 29.473646-55.588571 65.828572 24.889051 65.828571 55.588571 65.828571z" fill="#ECEAB9" /><path d="M377.417143 892.860709c0 11.0592-2.884754 18.733349-7.176777 24.640365-4.514377 6.217143-11.881326 12.220709-23.309166 17.451886C323.341166 945.757623 287.840549 950.857143 244.297143 950.857143s-79.044023-5.09952-102.634057-15.904183c-11.42784-5.231177-18.794789-11.234743-23.309166-17.451886-4.292023-5.907017-7.176777-13.581166-7.176777-24.640365 0-22.870309 12.744411-49.122743 37.443291-70.489235C172.985783 801.294629 206.871406 787.017143 244.297143 787.017143c37.425737 0 71.31136 14.277486 95.676708 35.354331C364.672731 843.737966 377.417143 869.9904 377.417143 892.860709z m29.257143 0C406.674286 959.704503 333.976137 980.114286 244.297143 980.114286S81.92 959.704503 81.92 892.860709C81.92 826.01984 154.618149 757.76 244.297143 757.76s162.377143 68.25984 162.377143 135.100709z m500.297143 0c0 11.0592-2.884754 18.733349-7.176778 24.640365-4.514377 6.217143-11.881326 12.220709-23.309165 17.451886-23.590034 10.804663-59.090651 15.904183-102.634057 15.904183s-79.044023-5.09952-102.634058-15.904183c-11.42784-5.231177-18.794789-11.234743-23.309165-17.451886-4.292023-5.907017-7.176777-13.581166-7.176777-24.640365 0-22.870309 12.744411-49.122743 37.443291-70.489235C702.540069 801.294629 736.425691 787.017143 773.851429 787.017143c37.425737 0 71.31136 14.277486 95.676708 35.354331C894.227017 843.737966 906.971429 869.9904 906.971429 892.860709z m29.257142 0C936.228571 959.704503 863.530423 980.114286 773.851429 980.114286s-162.377143-20.409783-162.377143-87.253577C611.474286 826.01984 684.172434 757.76 773.851429 757.76s162.377143 68.25984 162.377142 135.100709z" fill="#000000" /><path d="M244.297143 956.708571c75.135269 0 136.045714-16.114834 136.045714-68.883017C380.342857 835.054446 319.432411 781.165714 244.297143 781.165714S108.251429 835.054446 108.251429 887.825554C108.251429 940.593737 169.161874 956.708571 244.297143 956.708571z m529.554286 0c75.135269 0 136.045714-15.845669 136.045714-67.736137S848.986697 784.091429 773.851429 784.091429 637.805714 837.081966 637.805714 888.972434 698.71616 956.708571 773.851429 956.708571z" fill="#FFFFFF" /><path d="M290.927177 873.790903a8.777143 8.777143 0 1 0-17.124206-3.853166c-2.363977 10.497463-4.251063 27.11552-2.23232 43.379566 1.980709 15.989029 8.04864 33.83296 23.727543 43.54048a8.777143 8.777143 0 0 0 9.242332-14.926994c-8.897097-5.506194-13.800594-16.676571-15.550172-30.772663-1.714469-13.824-0.087771-28.361874 1.936823-37.367223z m-98.075794 11.969097a8.777143 8.777143 0 0 0-16.9984-4.388571c-2.153326 8.349989-4.049189 21.714651-2.878903 35.383588 1.158583 13.49632 5.459383 28.882651 17.302674 39.245532a8.777143 8.777143 0 0 0 11.556572-13.212526c-6.88128-6.02112-10.377509-15.991954-11.369326-27.533897-0.974263-11.369326 0.643657-22.726949 2.387383-29.494126z m541.71648-9.043383a8.780069 8.780069 0 0 1 17.127131-3.853166c2.363977 10.497463 4.248137 27.11552 2.23232 43.379566-1.983634 15.989029-8.04864 33.83296-23.730468 43.54048a8.777143 8.777143 0 0 1-9.239406-14.926994c8.897097-5.506194 13.800594-16.676571 15.550171-30.772663 1.711543-13.824 0.087771-28.361874-1.939748-37.367223z m98.075794 11.969097a8.777143 8.777143 0 0 1 16.9984-4.388571c2.156251 8.349989 4.052114 21.714651 2.878903 35.383588-1.155657 13.49632-5.459383 28.882651-17.299749 39.245532a8.777143 8.777143 0 0 1-11.559497-13.212526c6.88128-6.02112 10.380434-15.991954 11.369326-27.533897 0.974263-11.369326-0.640731-22.726949-2.387383-29.494126zM355.366034 612.682606c-25.714103-2.679954-65.480411-6.424869-101.23264-8.961463-17.876114-1.26976-34.772114-2.238171-48.417645-2.618514-6.81984-0.190171-12.855589-0.234057-17.811749-0.090698-4.897646 0.140434-8.917577 0.465189-11.615086 1.070812a2.92864 2.92864 0 0 0 1.287315 5.710994c2.103589-0.473966 5.640777-0.792869 10.497462-0.933303 4.798171-0.137509 10.716891-0.096549 17.481143 0.093623 13.522651 0.374491 30.325029 1.337051 48.163109 2.603886 35.670309 2.530743 75.372251 6.269806 101.039543 8.943908a2.92864 2.92864 0 0 0 0.608548-5.819245z m332.311406 4.455863c23.195063-3.118811 59.070171-7.551269 91.32032-10.705189 16.120686-1.57696 31.366583-2.840869 43.680914-3.455269 6.155703-0.310126 11.609234-0.459337 16.088503-0.403748 4.420754 0.055589 8.095451 0.310126 10.579383 0.883566a2.925714 2.925714 0 1 1-1.313646 5.702217c-1.828571-0.421303-4.964937-0.678766-9.33888-0.734355-4.309577-0.052663-9.631451 0.090697-15.722788 0.394972-12.179749 0.611474-27.32032 1.860754-43.402972 3.434788-32.159451 3.145143-67.961417 7.568823-91.109668 10.684709a2.92864 2.92864 0 0 1-0.781166-5.801691zM282.302171 653.347109c-34.105051 11.024091-71.820434 24.18688-96.138971 32.943542a2.925714 2.925714 0 0 0 1.980709 5.506195c24.283429-8.74496 61.93152-21.881417 95.957577-32.882103 17.015954-5.500343 33.098606-10.459429 46.138514-14.063909 6.521417-1.80224 12.255817-3.259246 16.951589-4.274468 4.748434-1.026926 8.259291-1.565257 10.412617-1.609143a2.925714 2.925714 0 1 0-0.117029-5.851429c-2.761874 0.058514-6.743771 0.705097-11.533166 1.7408-4.844983 1.050331-10.696411 2.536594-17.273417 4.356389-13.156937 3.636663-29.330286 8.62208-46.378423 14.134126z m557.374903 37.299931c-21.87264-8.323657-55.796297-20.816457-86.478263-31.234926-15.336594-5.210697-29.894949-9.91232-41.744091-13.317851-5.921646-1.702766-11.199634-3.09248-15.573577-4.057966-4.315429-0.953783-7.952091-1.541851-10.503314-1.550628a2.925714 2.925714 0 0 0-0.02048 5.851428c1.881234 0.005851 4.991269 0.47104 9.262811 1.41312 4.210103 0.930377 9.356434 2.282057 15.219566 3.967269 11.720411 3.370423 26.176366 8.036937 41.477851 13.233005 30.59712 10.392137 64.447634 22.85568 86.279314 31.164709a2.925714 2.925714 0 0 0 2.080183-5.46816zM362.788571 532.48c12.925806 0 23.405714-17.027657 23.405715-38.034286s-10.479909-38.034286-23.405715-38.034285-23.405714 17.027657-23.405714 38.034285 10.479909 38.034286 23.405714 38.034286z m321.828572 2.925714c12.925806 0 23.405714-17.027657 23.405714-38.034285s-10.479909-38.034286-23.405714-38.034286-23.405714 17.027657-23.405714 38.034286 10.479909 38.034286 23.405714 38.034285z" fill="#000000" /><path d="M359.862857 498.834286a4.388571 4.388571 0 1 1-8.780068-0.002926 4.388571 4.388571 0 0 1 8.780068 0.002926zM681.691429 501.76a4.388571 4.388571 0 1 1-8.780069-0.002926 4.388571 4.388571 0 0 1 8.780069 0.002926z" fill="#FFFFFF" /><path d="M570.514286 556.839497c0 9.131154-14.353554 10.509166-33.496503 10.713966l1.857828 38.13376c22.498743 1.445303 40.415817 27.062857 40.415818 58.44992 0 32.31744-18.993737 58.514286-42.422858 58.514286s-42.422857-26.196846-42.422857-58.514286c0-27.744549 13.999543-50.977646 32.785555-56.998766l-1.930972-39.552731c-22.127177-0.032183-39.631726-0.664137-39.631726-10.746149 0-10.503314 18.993737-27.285211 42.422858-27.285211s42.422857 16.781897 42.422857 27.285211z" fill="#634011" /><path d="M569.051429 664.137143c-16.384-7.021714-51.2 2.43712-61.44 7.314286 2.43712 14.139977 12.288 43.593143 32.182857 42.422857 19.894857-1.170286 32.182857-27.794286 29.257143-49.737143z" fill="#FF6A81" /></svg>